<?xml version="1.0" encoding="UTF-8"?>
<svg id="Layer_1" xmlns="http://www.w3.org/2000/svg" version="1.1" viewBox="0 0 1461.3 433.3">
  <!-- Generator: Adobe Illustrator 29.1.0, SVG Export Plug-In . SVG Version: 2.1.0 Build 142)  -->
  <g>
    <g>
      <g>
        <path d="M472.7,327h-169c-43.9,0-80.9-34.6-81.9-78.5-1.1-45.2,35.4-82.4,80.4-82.4h169c43.9,0,80.9,34.6,81.9,78.5,1.1,45.2-35.4,82.4-80.4,82.4h0ZM302.1,214.5c-18.2,0-33,15.3-32.1,33.8.9,17.3,15.7,30.5,33,30.5h168.7c17.3,0,32.2-13.2,33-30.5.9-18.4-13.8-33.8-32.1-33.8h-170.5,0Z"/>
        <path d="M23.8,166.5v160.2h48.8v-160.2H23.8Z"/>
        <path d="M618,166.5h70.4v43.7h-50.3c-11,0-19.9,8.9-19.9,19.9v96.6h-48.4v-111.9c0-26.6,21.6-48.2,48.2-48.2h0Z"/>
      </g>
      <rect x="23.8" y="106.3" width="48.8" height="48.8"/>
    </g>
    <path d="M140.2,161.9v4.6h70.2v43.7h-70.2v116.4h-48.4l.2-158.4v-13.7c0-26.7,21.6-48.2,48.2-48.2h70.3v43.7h-58.3c-6.6,0-11.9,5.3-11.9,11.9Z"/>
  </g>
  <g>
    <path d="M833.2,293.8l49.3-83.6h11.4v114.3h-10.4v-97.1l-48,81.5h-4.6l-48-81.1v96.8h-10.6v-114.3h11.4l49.5,83.6h0Z"/>
    <path d="M919.2,267.3c0-40,19.4-59.7,58.8-59.7s58.9,19.8,58.9,59.7-19.4,59.7-58.9,59.7-58.8-19.8-58.8-59.7ZM1026.3,267.3c0-33.9-15.7-50.1-48.3-50.1s-48.3,16.2-48.3,50.1,15.7,50.1,48.3,50.1,48.3-16.2,48.3-50.1Z"/>
    <path d="M1162.9,292.9c0,22.4-10.1,31.5-35.3,31.5h-65.8v-114.3h63.8c24.8,0,34.9,8.3,34.9,28.9s-7.2,23-19.3,25.5c14.2,2.3,21.6,12.4,21.6,28.4h0ZM1072.5,219.3v41.3h52.4c17.8,0,25.3-6,25.3-20.7s-7.5-20.6-25.3-20.6h-52.4ZM1072.5,315.3h54.3c18.3,0,25.6-6.5,25.6-22.9s-7.3-22.9-25.6-22.9h-54.3v45.7Z"/>
    <path d="M1199.3,324.4h-10.6v-114.3h10.6v114.3Z"/>
    <path d="M1320.9,324.4h-90.9v-114.3h10.6v104.6h80.3v9.6h0Z"/>
    <path d="M1437,324.4h-95.8v-114.3h95.8v9.5h-85.2v40.3h80.3v9.5h-80.3v45.5h85.2v9.5h0Z"/>
  </g>
</svg>